<svg width="172" height="64" viewBox="0 0 172 64" fill="none" xmlns="http://www.w3.org/2000/svg">
<path d="M98.1818 28.375H105.682C104.727 21.4716 98.642 16.6136 90.75 16.6136C81.5284 16.6136 74.4205 23.2614 74.4205 34.5795C74.4205 45.625 81.0682 52.4773 90.9034 52.4773C99.7159 52.4773 106.006 46.9034 106.006 37.7159V33.3182H91.3977V38.875H98.8977C98.7955 43.2045 95.8466 45.9489 90.9375 45.9489C85.3977 45.9489 81.9034 41.8068 81.9034 34.5114C81.9034 27.25 85.5341 23.142 90.8693 23.142C94.6705 23.142 97.2443 25.1023 98.1818 28.375ZM110.413 52H117.675V37.1875C117.675 33.9659 120.027 31.75 123.232 31.75C124.237 31.75 125.618 31.9205 126.3 32.142V25.6989C125.652 25.5455 124.749 25.4432 124.016 25.4432C121.084 25.4432 118.68 27.1477 117.726 30.3864H117.453V25.8182H110.413V52ZM129.054 52H136.315V25.8182H129.054V52ZM132.702 22.4432C134.866 22.4432 136.639 20.7898 136.639 18.7614C136.639 16.75 134.866 15.0966 132.702 15.0966C130.554 15.0966 128.781 16.75 128.781 18.7614C128.781 20.7898 130.554 22.4432 132.702 22.4432ZM150.78 52.4261C155.007 52.4261 157.206 49.9886 158.212 47.8068H158.518V52H165.678V17.0909H158.433V30.2159H158.212C157.24 28.0852 155.143 25.4773 150.763 25.4773C145.018 25.4773 140.161 29.9432 140.161 38.9432C140.161 47.7045 144.814 52.4261 150.78 52.4261ZM153.081 46.6477C149.518 46.6477 147.575 43.4773 147.575 38.9091C147.575 34.375 149.484 31.2557 153.081 31.2557C156.609 31.2557 158.587 34.2386 158.587 38.9091C158.587 43.5795 156.575 46.6477 153.081 46.6477Z" fill="#2D3436"/>
<path d="M47.25 17.6H22.75C20.817 17.6 19.25 19.0327 19.25 20.8V43.2C19.25 44.9673 20.817 46.4 22.75 46.4H47.25C49.183 46.4 50.75 44.9673 50.75 43.2V20.8C50.75 19.0327 49.183 17.6 47.25 17.6Z" stroke="#6C5CE7" stroke-width="3.5" stroke-linecap="round" stroke-linejoin="round"/>
<path d="M19.25 27.2H50.75" stroke="#6C5CE7" stroke-width="3.5" stroke-linecap="round" stroke-linejoin="round"/>
<path d="M29.75 46.4V27.2" stroke="#6C5CE7" stroke-width="3.5" stroke-linecap="round" stroke-linejoin="round"/>
</svg>
