<svg width="48" height="20" viewBox="0 0 48 20" fill="none" xmlns="http://www.w3.org/2000/svg">
<path d="M11.8956 7.1875H15.6456C15.1683 3.73579 12.1257 1.30682 8.17969 1.30682C3.56889 1.30682 0.0149148 4.63068 0.0149148 10.2898C0.0149148 15.8125 3.33878 19.2386 8.25639 19.2386C12.6626 19.2386 15.8075 16.4517 15.8075 11.858V9.65909H8.50355V12.4375H12.2536C12.2024 14.6023 10.728 15.9744 8.27344 15.9744C5.50355 15.9744 3.75639 13.9034 3.75639 10.2557C3.75639 6.625 5.57173 4.57102 8.23935 4.57102C10.1399 4.57102 11.4268 5.55114 11.8956 7.1875ZM18.7614 19H22.392V11.5938C22.392 9.98295 23.5682 8.875 25.1705 8.875C25.6733 8.875 26.3636 8.96023 26.7045 9.07102V5.84943C26.3807 5.77273 25.929 5.72159 25.5625 5.72159C24.0966 5.72159 22.8949 6.57386 22.4176 8.19318H22.2812V5.90909H18.7614V19ZM28.8317 19H32.4624V5.90909H28.8317V19ZM30.6555 4.22159C31.7379 4.22159 32.6243 3.39489 32.6243 2.38068C32.6243 1.375 31.7379 0.548295 30.6555 0.548295C29.5817 0.548295 28.6953 1.375 28.6953 2.38068C28.6953 3.39489 29.5817 4.22159 30.6555 4.22159ZM40.4446 19.2131C42.5582 19.2131 43.6577 17.9943 44.1605 16.9034H44.3139V19H47.8935V1.54545H44.2713V8.10795H44.1605C43.6747 7.04261 42.6264 5.73864 40.4361 5.73864C37.5639 5.73864 35.1349 7.97159 35.1349 12.4716C35.1349 16.8523 37.4616 19.2131 40.4446 19.2131ZM41.5952 16.3239C39.8139 16.3239 38.8423 14.7386 38.8423 12.4545C38.8423 10.1875 39.7969 8.62784 41.5952 8.62784C43.3594 8.62784 44.348 10.1193 44.348 12.4545C44.348 14.7898 43.3423 16.3239 41.5952 16.3239Z" fill="#5C5C5C"/>
</svg>
